<?xml version="1.0" encoding="UTF-8"?>
<svg id="uuid-4bc31138-01a1-457f-8243-6025aeb86053" data-name="Layer 2" xmlns="http://www.w3.org/2000/svg" viewBox="0 0 199.43 199.43">
  <defs>
    <style>
      .uuid-410a9d4a-046b-451f-a3f6-cbec1c10c4a9 {
        fill: #43271c;
      }

      .uuid-01783407-3924-4026-ae90-1aa2808ea6fe {
        fill: #fcfcfc;
        font-family: Hansol-Regular, Hansol;
        font-size: 27.16px;
      }

      .uuid-3142d513-2220-4387-8369-d6f9afc8c573 {
        fill: #231f20;
      }

      .uuid-34c349e0-4d0f-496f-af71-5b2ee85e1120 {
        fill: #6ab8ca;
      }

      .uuid-19aa502c-c743-41f8-9af9-f53403397e44 {
        fill: #8ad2d9;
      }

      .uuid-c14861c2-71a7-40da-9654-760d4d00fc10 {
        fill: #b8e2e9;
      }

      .uuid-84ed4011-60f8-4454-9a30-5abda99f0892 {
        fill: #f9fcfb;
      }

      .uuid-58dad0d1-53cd-4d08-9d3d-736c20a04e3d, .uuid-11ffcb05-d40f-4471-9ee4-34191f0d2795 {
        fill: #fff;
      }

      .uuid-11ffcb05-d40f-4471-9ee4-34191f0d2795 {
        font-family: AvenirNext-DemiBoldItalic, 'Avenir Next';
        font-size: 7.35px;
        font-style: italic;
        font-weight: 300;
      }

      .uuid-b3747bb2-80a9-49de-9ad2-33e2db6ad495 {
        letter-spacing: 0em;
      }

      .uuid-d384832b-3a2e-481f-a694-f1e7a067c141 {
        fill: #ec0e84;
      }

      .uuid-5648b7ee-94f7-4cf8-9487-28352b34447b {
        opacity: .6;
      }

      .uuid-4076301a-6910-4ffc-a10f-3c511adc5bee {
        letter-spacing: -.02em;
      }
    </style>
  </defs>
  <g id="uuid-ab19083a-3f59-40f2-8fb2-65d5b65c7230" data-name="Capa 1">
    <g>
      <g>
        <path class="uuid-58dad0d1-53cd-4d08-9d3d-736c20a04e3d" d="M26.95.25h145.52c14.74,0,26.7,11.96,26.7,26.7v145.52c0,14.74-11.96,26.7-26.7,26.7H26.95c-14.74,0-26.7-11.96-26.7-26.7V26.95C.25,12.21,12.21.25,26.95.25Z"/>
        <path class="uuid-3142d513-2220-4387-8369-d6f9afc8c573" d="M172.47.5c14.61,0,26.45,11.84,26.45,26.45v145.52c0,14.61-11.84,26.45-26.45,26.45H26.95c-14.61,0-26.45-11.84-26.45-26.45V26.95C.5,12.34,12.34.5,26.95.5h145.52ZM172.47,0H26.95C12.09,0,0,12.09,0,26.95v145.52c0,14.86,12.09,26.95,26.95,26.95h145.52c14.86,0,26.95-12.09,26.95-26.95V26.95c0-14.86-12.09-26.95-26.95-26.95h0Z"/>
      </g>
      <g>
        <path class="uuid-d384832b-3a2e-481f-a694-f1e7a067c141" d="M86.14,144.12c-.17,7.25.69,23.77,11.13,30.28,13.57,8.47,22.78,1.51,27.54-6.03,4.24-6.73,5.28-19.66.7-25.28,0,0,22.99,6.03,36.7-9.48,5.89-6.67,9.99-17.47-1.97-28.05-7.05-6.23-18.12-5.45-26.04-3.77,0,0,49.23-46.76,18.13-74.66-28.18-25.28-60.68,31.32-59.9,45.57,0,0-17.79-17.89-33.08-12.73-15.31,5.18-15.91,16.67-13.19,25.04,2.53,7.79,12.45,17.08,19.86,16.32,0,0-73.79,19.17-43.39,46.05,55.95,49.46,63.53-3.28,63.53-3.28Z"/>
        <g class="uuid-5648b7ee-94f7-4cf8-9487-28352b34447b">
          <path class="uuid-d384832b-3a2e-481f-a694-f1e7a067c141" d="M66.99,81.39c-7.25-.39-23.78-.05-30.61,10.18-8.89,13.3-2.21,22.73,5.17,27.71,6.59,4.44,19.48,5.89,25.25,1.48,0,0-6.74,22.79,8.33,36.97,6.48,6.1,17.15,10.53,28.1-1.1,6.45-6.85,6.01-17.94,4.57-25.91,0,0,45.21,50.66,74.06,20.44,26.14-27.39-29.42-61.62-43.69-61.28,0,0,18.43-17.22,13.75-32.67-4.7-15.46-16.16-16.42-24.62-13.96-7.86,2.29-17.45,11.91-16.93,19.34,0,0-16.88-74.35-44.68-44.8-51.18,54.39,1.3,63.6,1.3,63.6Z"/>
        </g>
      </g>
      <rect class="uuid-d384832b-3a2e-481f-a694-f1e7a067c141" x="12.01" y="10.71" width="32.18" height="30.82" rx="5.49" ry="5.49"/>
      <text class="uuid-01783407-3924-4026-ae90-1aa2808ea6fe" transform="translate(19.23 35.65) scale(1.08 1)"><tspan x="0" y="0">3</tspan></text>
      <rect class="uuid-d384832b-3a2e-481f-a694-f1e7a067c141" x="134.04" y="170.94" width="50.04" height="13.74" rx="4.57" ry="4.57"/>
      <text class="uuid-11ffcb05-d40f-4471-9ee4-34191f0d2795" transform="translate(139.06 180.56)"><tspan class="uuid-4076301a-6910-4ffc-a10f-3c511adc5bee" x="0" y="0">C</tspan><tspan class="uuid-b3747bb2-80a9-49de-9ad2-33e2db6ad495" x="4.87" y="0">afé soluble</tspan></text>
      <g>
        <path class="uuid-19aa502c-c743-41f8-9af9-f53403397e44" d="M115.22,72.65l.17,9.39c-.11,5.03-.4,9.87-.73,14.89l-1.01,15.75c-.41,6.44-1.15,16.32-3.18,22.04-.7,1.98-1.76,3.69-3.29,5.13-9.06,8.53-29.81,7.8-41.42,4.86-.29-.07-.53-.13-.77.01-6.57-5.56-9.06-18.99-9.71-27.55l-2.06-27.26-1.66-25.92c.87,1.55,2.07,2.84,3.62,3.83,4.7,2.99,11.55,4.47,17.16,5.24,7.52,1.03,14.95,1.35,22.57,1.28,6.89-.07,13.6-.58,20.31-1.68ZM66.76,133.81c.94-.5.92-2.43.67-3.86-.94-5.33-1.76-10.54-2.22-15.94l-1.7-20.24-1.03-13.86c-.12-1.56-.7-3.03-1.72-4.11-.84-.89-2.08-.85-2.87.03-1.22,1.36-1.34,3.78-1.21,5.76l1,14.42,1.92,21.31c.39,4.32,1.69,10.75,3.87,14.32.84,1.38,2.15,2.77,3.28,2.16Z"/>
        <path class="uuid-34c349e0-4d0f-496f-af71-5b2ee85e1120" d="M132.37,73.12c-1.2,2.55-1.97,5.48-1.74,8.41.11,1.43,1.71,2.07,2.9,1.74l3.19-.9c1.69-.48,4.32-.14,5.27,1.22-4.33-.24-7.71,2.83-10.69,5.85l-2.43,30.3c3.09,1.05,6.32.62,9.08-1.16,2.36-1.52,4.31-3.45,5.91-5.81,3.72-5.48,5.62-12.06,5.33-18.69-.21-4.75-2.22-9.65-7.05-10.45-.03-.15.04-.3.16-.34,1.87-.49,3.72-.17,5.37.84,3.55,2.15,5.18,6.7,5.44,10.84.61,9.59-3.26,20.51-11.37,26.05-1.49,1.02-3.03,1.73-4.76,2.18-3.3.74-6.65.39-8.18-2.96l-1.8,11.72c-.86,2.84-1.91,5.64-3.54,8.22-1.38,2.2-2.99,4.1-5.18,5.49-4.3,2.72-10.13,4.01-15.24,4.62-7.93.95-15.86.87-23.77-.33-4.78-.73-10.74-2.24-14.3-5.25.25-.14.48-.09.77-.01,11.61,2.95,32.36,3.68,41.42-4.86,1.53-1.44,2.59-3.15,3.29-5.13,2.04-5.72,2.77-15.59,3.18-22.04l1.01-15.75c.32-5.02.62-9.86.73-14.89l-.17-9.39c4.89-.8,11.04-2.29,14.97-5.37,1.26-.99,2.23-2.17,2.76-3.61l-.56,8.05c-.04.51-.07.97-.02,1.4Z"/>
        <path class="uuid-19aa502c-c743-41f8-9af9-f53403397e44" d="M127.01,131.96l1.8-11.72c1.53,3.35,4.88,3.7,8.18,2.96,1.72-.45,3.26-1.16,4.76-2.18,8.1-5.54,11.97-16.46,11.37-26.05-.26-4.14-1.89-8.69-5.44-10.84-1.66-1-3.5-1.33-5.37-.84-.12.03-.19.18-.16.34-.01-.11-.11-.11-.15-.04-.94-1.37-3.58-1.7-5.27-1.22l-3.19.9c-1.19.34-2.79-.31-2.9-1.74-.23-2.93.54-5.86,1.74-8.41,4.88-1.66,9.92-2.15,14.9-.61,4.15,1.27,7.48,4.05,9.59,7.85,1.69,3.05,2.69,6.29,3.13,9.8,1.19,9.39-.73,19.89-5.93,27.88-6.08,9.36-16.16,13.48-27.05,13.92ZM154.42,82.86c.65-.67.09-2.29-.6-3.4-4.65-7.45-16.18-6.92-16.19-4.72,0,.93,2.08,1.42,3.57,1.56,3.94.37,7.41,2.06,10.04,5,.99,1.1,2.4,2.36,3.17,1.56Z"/>
        <path class="uuid-c14861c2-71a7-40da-9654-760d4d00fc10" d="M132.96,63.66c-.53,1.44-1.51,2.63-2.76,3.61-3.93,3.09-10.08,4.57-14.97,5.37-6.7,1.1-13.41,1.61-20.31,1.68-7.61.08-15.05-.25-22.57-1.28-5.61-.77-12.46-2.24-17.16-5.24-1.55-.99-2.75-2.27-3.62-3.83-.12-1.87.31-3.55,1.78-4.93,5.21-4.9,16.84-6.93,24.13-7.71,11.58-1.24,23.18-1.08,34.72.47,3.13.42,6.06.98,9.06,1.8,3.91,1.06,8.13,2.86,10.56,6.08.92,1.22,1.25,2.54,1.15,3.97ZM64.05,56.47c-3.08.82-8.8,3.06-8.78,6.16,0,1.65,1.38,2.93,2.78,3.55.13.22.32.3.6.4.14.05.31.28.54.39,2.58,1.2,5.21,2.04,8.01,2.66,3.15.7,6.19,1.2,9.44,1.52,10.04.99,20.05,1.09,30.1.15,5.98-.56,13.95-1.83,19.05-4.6,2.35-1.27,4.68-3.2,3.16-5.65-2.8-4.51-13.86-6.43-19.36-7.11-13.15-1.62-27.49-1.38-40.53,1.15-1.76.34-3.32.93-5.01,1.38Z"/>
        <path class="uuid-84ed4011-60f8-4454-9a30-5abda99f0892" d="M66.76,133.81c-1.12.6-2.44-.79-3.28-2.16-2.18-3.57-3.48-10-3.87-14.32l-1.92-21.31-1-14.42c-.14-1.98,0-4.4,1.21-5.76.79-.88,2.02-.93,2.87-.03,1.02,1.08,1.6,2.54,1.72,4.11l1.03,13.86,1.7,20.24c.46,5.41,1.28,10.62,2.22,15.94.25,1.44.27,3.36-.67,3.86Z"/>
        <path class="uuid-84ed4011-60f8-4454-9a30-5abda99f0892" d="M154.42,82.86c-.77.79-2.18-.46-3.17-1.56-2.63-2.93-6.1-4.63-10.04-5-1.49-.14-3.58-.63-3.57-1.56,0-2.2,11.53-2.73,16.19,4.72.69,1.11,1.25,2.73.6,3.4Z"/>
        <path class="uuid-34c349e0-4d0f-496f-af71-5b2ee85e1120" d="M125.79,66.71c-2.46-1.81-6.18-2.92-9.27-3.59-11.68-2.53-25.91-2.76-37.82-1.64-6.06.57-13.63,1.76-18.94,4.48-.39.2-.67.54-1.12.63-.28-.1-.47-.19-.6-.4l-.18-1.22c-.78-3.89,2.35-6.54,5.78-8.04.23-.1.33-.23.4-.45,1.69-.45,3.25-1.04,5.01-1.38,13.03-2.53,27.37-2.77,40.53-1.15,5.5.68,16.56,2.6,19.36,7.11,1.52,2.45-.81,4.38-3.16,5.65Z"/>
        <path class="uuid-410a9d4a-046b-451f-a3f6-cbec1c10c4a9" d="M125.79,66.71c-5.1,2.77-13.07,4.04-19.05,4.6-10.05.94-20.06.84-30.1-.15-3.25-.32-6.28-.83-9.44-1.52-2.8-.62-5.43-1.46-8.01-2.66-.23-.1-.39-.33-.54-.39.44-.1.73-.43,1.12-.63,5.3-2.71,12.88-3.91,18.94-4.48,11.9-1.12,26.14-.89,37.82,1.64,3.09.67,6.81,1.78,9.27,3.59Z"/>
        <path class="uuid-19aa502c-c743-41f8-9af9-f53403397e44" d="M64.05,56.47c-.07.22-.17.36-.4.45-3.44,1.5-6.56,4.15-5.78,8.04l.18,1.22c-1.41-.63-2.77-1.91-2.78-3.55-.02-3.1,5.7-5.34,8.78-6.16Z"/>
      </g>
    </g>
  </g>
</svg>