<svg preserveAspectRatio="none" overflow="visible" style="display: block;" width="27.694" height="37.35" viewBox="0 0 27.694 37.35" fill="none" xmlns="http://www.w3.org/2000/svg">
<g id="Group">
<path id="Vector" d="M20.0591 17.6204C20.828 18.5761 20.9379 20.147 21.2125 21.3883L22.6846 28.0674L23.08 30.2425L23.3986 32.7471C23.2448 32.7142 23.0141 32.6043 22.8933 32.3956L21.1686 29.144C19.0265 25.8044 16.1153 23.0142 12.6989 21.0039L10.3261 14.2809L7.21726 7.27228C11.0841 9.01894 14.863 11.172 17.5544 14.5335L20.0371 17.6314L20.0591 17.6204Z" fill="#D1AC7F"/>
<path id="Vector_2" d="M27.6829 37.339L22.6846 36.3284C21.3994 36.0647 20.2788 35.2408 19.6746 34.0983L18.0268 30.9895C16.2033 28.1993 13.7316 25.8374 10.8645 24.1567L9.71102 23.4756L6.94271 15.6321L0 0L8.74431 3.94375C12.4134 5.60253 17.0601 8.04126 20.4326 12.2486L22.9153 15.3464C24.0907 16.8185 24.4093 18.5871 24.651 19.8724C24.6949 20.1251 24.7389 20.3777 24.7938 20.6084L26.2988 27.4193L26.7272 29.7811L27.6939 37.35L27.6829 37.339ZM15.7419 18.5652C16.0276 18.7519 16.3131 18.9496 16.5988 19.1474L15.4453 17.7083L15.7529 18.5652H15.7419Z" fill="white"/>
</g>
</svg>
