<?xml version="1.0" encoding="UTF-8"?>
<svg id="Layer_2" data-name="Layer 2" xmlns="http://www.w3.org/2000/svg" viewBox="0 0 327.47 244.88">
  <defs>
    <style>
      .cls-1 {
        fill: #e0d39a;
      }

      .cls-2 {
        fill: #c1a876;
      }

      .cls-3 {
        fill: #8e8a46;
      }

      .cls-4 {
        fill: #8e8445;
      }
    </style>
  </defs>
  <g id="pepitas">
    <g>
      <path class="cls-3" d="M95.4,93.08c50.59,0,76.19,28.65,76.19,42.67s-24.04,55.47-73.41,55.47c-56.76,0-68-15.24-75.31-23.17,5.18-1.02,4.88-9.75,4.87-13.12-.03-9.17-10.42-13.79-10.42-13.79,0,0,26.69-48.06,78.08-48.06Z"/>
      <path class="cls-4" d="M27.75,154.89c0-9.17-10.42-13.79-10.42-13.79,0,0,26.69-48.06,78.08-48.06s76.19,28.65,76.19,42.67-24.04,55.47-73.41,55.47c0-30.01-33.88-49.2-70.44-36.29Z"/>
      <path class="cls-2" d="M17.33,141.14s6.15,3.06,8.34,6.41,2.08,7.38,2.08,7.38c0,0-4.85-2.44-12.51-2.2s-14.48,2.62-14.48,2.62l16.58-14.2"/>
      <path class="cls-1" d="M.75,155.34s-.75.32-.75,1.26,11.32,4.35,15.05,5.86,7.82,5.59,7.82,5.59c0,0,4.79-1.1,4.79-8.65.22-4.04.08-4.47.08-4.47,0,0-4.56-2.28-12.82-2.28s-14.17,2.7-14.17,2.7Z"/>
    </g>
    <g>
      <path class="cls-3" d="M195.03,5.31c-48.36-14.85-81.24,5.03-85.36,18.43-4.11,13.4,6.7,60.08,53.9,74.57,54.26,16.66,69.48,5.38,78.8-.04-4.65-2.5-1.8-10.76-.8-13.97,2.72-8.76,14-10.12,14-10.12,0,0-11.41-53.78-60.54-68.86Z"/>
      <path class="cls-4" d="M241.57,84.25c2.69-8.77,14-10.12,14-10.12,0,0-11.41-53.78-60.54-68.86-48.36-14.85-81.24,5.03-85.36,18.43s6.7,60.08,53.9,74.57c8.81-28.69,46.83-37.09,77.99-14.02Z"/>
      <path class="cls-2" d="M255.57,74.17s-6.77,1.12-9.85,3.68c-3.08,2.56-4.15,6.44-4.15,6.44,0,0,5.35-.91,12.61,1.57,7.26,2.48,13.07,6.75,13.07,6.75l-11.68-18.44"/>
      <path class="cls-1" d="M267.25,92.61s.62.53.35,1.42-12.1.84-16.11,1.19-9.11,3.05-9.11,3.05c0,0-4.26-2.46-2.04-9.68.97-3.93,1.24-4.3,1.24-4.3,0,0,5.03-.84,12.93,1.58,7.9,2.42,12.76,6.73,12.76,6.73Z"/>
    </g>
    <g>
      <path class="cls-3" d="M254.84,143.13c-48.36-14.85-81.24,5.03-85.36,18.43-4.11,13.4,6.7,60.08,53.9,74.57,54.26,16.66,69.48,5.38,78.8-.04-4.65-2.5-1.8-10.76-.8-13.97,2.72-8.76,14-10.12,14-10.12,0,0-11.41-53.78-60.54-68.86Z"/>
      <path class="cls-4" d="M301.38,222.07c2.69-8.77,14-10.12,14-10.12,0,0-11.41-53.78-60.54-68.86-48.36-14.85-81.24,5.03-85.36,18.43s6.7,60.08,53.9,74.57c8.81-28.69,46.83-37.09,77.99-14.02Z"/>
      <path class="cls-2" d="M315.38,211.99s-6.77,1.12-9.85,3.68c-3.08,2.56-4.15,6.44-4.15,6.44,0,0,5.35-.91,12.61,1.57,7.26,2.48,13.07,6.75,13.07,6.75l-11.68-18.44"/>
      <path class="cls-1" d="M327.05,230.43s.62.53.35,1.42-12.1.84-16.11,1.19-9.11,3.05-9.11,3.05c0,0-4.26-2.46-2.04-9.68.97-3.93,1.24-4.3,1.24-4.3,0,0,5.03-.84,12.93,1.58,7.9,2.42,12.76,6.73,12.76,6.73Z"/>
    </g>
  </g>
</svg>